:version 1.10
:name ASF
:units
  mass 1
  length 1
  angle deg
:documentation
  ASF file generated by Kaydara
:root
  axis xyz
  order  tx ty tz rx ry rz
  position 0 0 0
  orientation 0 0 0
:bonedata
  begin
    id 1
    name RightUpLegDummy
    direction -1 2.30186e-007 8.31532e-007
    length 4.46685
    axis 0 0 0 xyz
  end
  begin
    id 2
    name RightUpLeg
    direction -2.30187e-007 -1 1.24343e-010
    length 16.4045
    axis -3.49089 -0.000906625 0.000286804 xyz
    dof rx ry rz
  end
  begin
    id 3
    name RightLeg
    direction -2.30181e-007 -1 -4.17157e-009
    length 17.5097
    axis 3.68512 0.0193738 -0.131023 xyz
    dof rx ry rz
  end
  begin
    id 4
    name RightFoot
    direction 8.31421e-007 -4.51202e-011 1
    length 6.49508
    axis 4.81691e-005 -0.120479 -0.188788 xyz
    dof rx ry rz
  end
  begin
    id 5
    name RightToes
    direction 0.00124746 -0.014064 0.9999
    length 3.85082
    axis 0.000481921 0.542163 -0.142578 xyz
    dof rx ry rz
  end
  begin
    id 6
    name SpineDummy
    direction 0.0717043 0.9409 -0.331007
    length 10.0032
    axis 0 0 0 xyz
  end
  begin
    id 7
    name Spine
    direction 2.30186e-007 1 4.58806e-011
    length 9.84055
    axis -0.001389 0.000121418 2.40972e-006 xyz
    dof rx ry rz
  end
  begin
    id 8
    name Spine1
    direction 0 0 0
    length 0
    axis -0.001389 0.000121451 1.30017e-006 xyz
    dof rx ry rz
  end
  begin
    id 9
    name HEadDummy
    direction -0.00347485 0.950688 -0.310128
    length 8.00997
    axis -0.001389 0.000121451 1.30017e-006 xyz
  end
  begin
    id 10
    name HEad
    direction -0.0222688 0.980941 0.193023
    length 5.12695
    axis -0.001389 0.000121451 1.30017e-006 xyz
    dof rx ry rz
  end
  begin
    id 11
    name LeftShoulder1Dummy
    direction 0.988871 0.146793 -0.0242004
    length 3.5792
    axis -0.001389 0.000121451 1.30017e-006 xyz
  end
  begin
    id 12
    name LeftShoulder1
    direction 0.993832 0.108932 0.020779
    length 4.16823
    axis -0.001389 0.000121451 1.30017e-006 xyz
    dof rx ry rz
  end
  begin
    id 13
    name LeftArm
    direction 1 3.44807e-006 -8.31404e-007
    length 9.91437
    axis -23.1894 0.134784 0.967509 xyz
    dof rx ry rz
  end
  begin
    id 14
    name LeftForeArm
    direction 1 3.44842e-006 -8.31581e-007
    length 9.08575
    axis -9.91835 -0.06569 -0.177793 xyz
    dof rx ry rz
  end
  begin
    id 15
    name LeftHand
    direction 0.992938 -0.0411636 0.11126
    length 5.32135
    axis -0.00960232 -0.00340091 0.185173 xyz
    dof rx ry rz
  end
  begin
    id 16
    name RightShoulderDummy
    direction -0.988871 0.146793 -0.0241962
    length 3.5792
    axis -0.001389 0.000121451 1.30017e-006 xyz
  end
  begin
    id 17
    name RightShoulder
    direction -0.993832 0.108933 0.0207785
    length 4.16823
    axis 0.215806 0.000203643 -0.0068026 xyz
    dof rx ry rz
  end
  begin
    id 18
    name RightArm
    direction -1 3.90912e-006 8.31284e-007
    length 9.91437
    axis -23.2009 -0.134239 -0.964101 xyz
    dof rx ry rz
  end
  begin
    id 19
    name RightForeArm
    direction -1 3.90882e-006 8.31502e-007
    length 9.08575
    axis -9.92322 0.0658061 0.178867 xyz
    dof rx ry rz
  end
  begin
    id 20
    name RightHand
    direction -0.992843 -0.0414603 0.112003
    length 5.28593
    axis -0.00960638 0.00330671 -0.185228 xyz
    dof rx ry rz
  end
  begin
    id 21
    name LeftUpLegDummy
    direction 1 -2.30186e-007 -8.31532e-007
    length 4.46685
    axis 0 0 0 xyz
  end
  begin
    id 22
    name LeftUpLeg
    direction -2.30187e-007 -1 6.00931e-010
    length 16.4045
    axis -3.48766 0.00143442 -0.000524262 xyz
    dof rx ry rz
  end
  begin
    id 23
    name LeftLeg
    direction -2.30187e-007 -1 1.6669e-009
    length 17.5097
    axis 3.68178 -0.00654042 -0.000285133 xyz
    dof rx ry rz
  end
  begin
    id 24
    name LeftFoot
    direction 8.31532e-007 -4.54478e-011 1
    length 6.49508
    axis 1.87233e-006 4.66016e-005 -8.6538e-006 xyz
    dof rx ry rz
  end
  begin
    id 25
    name LeftToes
    direction 0.00818058 -0.00485161 0.999955
    length 3.85048
    axis 1.06247e-005 4.65869e-005 -8.65513e-006 xyz
    dof rx ry rz
  end
:hierarchy
  begin
    root RightUpLegDummy SpineDummy LeftUpLegDummy
    RightUpLegDummy RightUpLeg
    RightUpLeg RightLeg
    RightLeg RightFoot
    RightFoot RightToes
    SpineDummy Spine
    Spine Spine1
    Spine1 HEadDummy LeftShoulder1Dummy RightShoulderDummy
    HEadDummy HEad
    LeftShoulder1Dummy LeftShoulder1
    LeftShoulder1 LeftArm
    LeftArm LeftForeArm
    LeftForeArm LeftHand
    RightShoulderDummy RightShoulder
    RightShoulder RightArm
    RightArm RightForeArm
    RightForeArm RightHand
    LeftUpLegDummy LeftUpLeg
    LeftUpLeg LeftLeg
    LeftLeg LeftFoot
    LeftFoot LeftToes
  end

:SAMPLES-PER-SECOND 30
:FULLY-SPECIFIED
:DEGREES
81
root  54.0086 29.8423 44.1554 2.57947 32.6082 -4.0575
RightUpLeg  -43.456 -13.8653 21.1648
RightLeg  43.8179 -2.26279 -1.93634
RightFoot  -7.4494 -0.0165975 0.122606
RightToes  -14.3904 -0.0524436 -0.130262
Spine  15.4098 0.227515 -4.88042
Spine1  26.3906 0.617053 -8.15564
HEad  34.2447 -1.0959 26.9721
LeftShoulder1  0 -2.42657e-020 -4.95415e-022
LeftArm  -46.2081 -24.05 -55.5921
LeftForeArm  -152.18 -12.1676 -1.78447
LeftHand  9.8706 -28.9017 -37.4275
RightShoulder  0 2.42657e-020 1.07489e-018
RightArm  -7.64828 16.6364 92.527
RightForeArm  38.2354 37.4708 7.7624
RightHand  -0.72822 26.466 -2.72666
LeftUpLeg  -55.2653 -17.5134 12.7258
LeftLeg  86.1516 -0.550375 -4.20812
LeftFoot  -0.000704245 -2.40404e-007 -0.0389063
LeftToes  -31.7641 1.18758e-006 1.19596e-007
82
root  53.8825 29.9779 44.9973 4.51453 25.7948 -2.11598
RightUpLeg  -41.6745 -13.3322 21.6057
RightLeg  44.1798 -7.81569 -6.65088
RightFoot  -13.2777 0.205135 2.13999
RightToes  -10.0393 -0.0331551 -0.0923229
Spine  15.8829 1.61139 -5.96553
Spine1  26.8978 4.29893 -9.80469
HEad  35.3117 0.996712 25.5341
LeftShoulder1  0 -2.42657e-020 -4.95415e-022
LeftArm  -38.8147 -25.3876 -58.3542
LeftForeArm  -148.366 -13.3489 -2.00296
LeftHand  10.892 -26.4319 -44.5708
RightShoulder  0 2.42657e-020 1.07489e-018
RightArm  -10.9084 19.0603 92.2204
RightForeArm  38.2236 36.0021 7.35383
RightHand  -0.930615 26.2238 -3.62463
LeftUpLeg  -59.3755 -18.4566 13.1495
LeftLeg  79.6452 -2.51373 -9.9774
LeftFoot  -1.44377 0.00521523 0.413898
LeftToes  -30.5425 1.18758e-006 1.19596e-007
83
root  53.9881 30.154 46.0448 5.26953 21.5611 -0.5838
RightUpLeg  -39.5391 -15.762 21.5209
RightLeg  44.6532 -7.74637 -6.70366
RightFoot  -16.9631 0.361259 2.79989
RightToes  -2.0499 -0.00544687 -0.0193007
Spine  16.1894 2.14593 -6.46966
Spine1  27.3921 6.01129 -10.5387
HEad  37.7421 1.68268 23.1608
LeftShoulder1  0 -2.42657e-020 -4.95415e-022
LeftArm  -37.3542 -24.3672 -61.9247
LeftForeArm  -153.71 -17.3863 -2.75678
LeftHand  11.4605 -26.1155 -47.1726
RightShoulder  0 2.42657e-020 1.07489e-018
RightArm  -14.6527 20.3725 91.8061
RightForeArm  39.4146 34.5707 6.96911
RightHand  -1.30834 25.4454 -5.42145
LeftUpLeg  -61.0256 -21.3157 13.0522
LeftLeg  72.6354 -5.78513 -14.6964
LeftFoot  -1.70457 0.0112434 0.755775
LeftToes  -31.5587 1.18758e-006 1.19596e-007
84
root  54.0537 30.2987 47.0926 6.25635 18.3395 0.588233
RightUpLeg  -37.7369 -14.2347 20.7048
RightLeg  44.2308 -5.93492 -5.08377
RightFoot  -17.6539 0.27117 2.12372
RightToes  11.6787 0.0176374 0.112691
Spine  15.7238 2.27351 -6.45226
Spine1  26.6973 6.73888 -10.8792
HEad  39.1758 2.43905 21.3755
LeftShoulder1  0 -2.42657e-020 -4.95415e-022
LeftArm  -35.4337 -21.2241 -65.3631
LeftForeArm  -156.325 -22.9988 -3.86611
LeftHand  11.5673 -26.4055 -47.0848
RightShoulder  0 2.42657e-020 1.07489e-018
RightArm  -17.3987 19.731 90.4756
RightForeArm  41.4987 34.2293 6.87705
RightHand  -1.64378 25.6919 -6.83099
LeftUpLeg  -61.4496 -22.5893 11.7398
LeftLeg  64.0162 -7.96057 -13.6775
LeftFoot  -0.6879 0.00339728 0.565901
LeftToes  -35.5762 1.18758e-006 1.19596e-007
85
root  54.05 30.4541 48.2201 6.56348 15.567 1.36867
RightUpLeg  -35.0429 -10.9302 19.7082
RightLeg  43.7763 -6.50739 -5.47729
RightFoot  -18.3615 0.321602 2.36731
RightToes  16.4095 0.0181951 0.15896
Spine  15.4048 2.35105 -6.15234
Spine1  26.3227 7.27912 -10.9375
HEad  39.8953 3.83564 18.5655
LeftShoulder1  0 -2.42657e-020 -4.95415e-022
LeftArm  -31.4505 -17.9247 -67.8076
LeftForeArm  -155.417 -28.3748 -5.01928
LeftHand  11.9199 -24.627 -51.5026
RightShoulder  0 2.42657e-020 1.07489e-018
RightArm  -18.545 18.3336 88.2464
RightForeArm  40.3277 35.319 7.1666
RightHand  -1.52081 25.5351 -6.33571
LeftUpLeg  -59.8033 -22.6956 9.45272
LeftLeg  54.9833 -11.382 -13.8473
LeftFoot  0.355414 -0.00100156 0.322911
LeftToes  -36.4654 1.18758e-006 1.19596e-007
86
root  54.0527 30.5894 49.3878 6.37183 13.2617 1.8864
RightUpLeg  -32.2878 -10.4733 19.1385
RightLeg  43.6737 -5.18926 -4.36653
RightFoot  -19.3788 0.261222 1.90745
RightToes  16.8717 0.0186157 0.163478
Spine  15.313 2.30717 -5.72423
Spine1  26.4766 7.45978 -10.7889
HEad  39.1545 4.54984 16.715
LeftShoulder1  0 -2.42657e-020 -4.95415e-022
LeftArm  -28.5759 -15.1988 -69.6863
LeftForeArm  -154.359 -33.1015 -6.13414
LeftHand  11.9322 -22.1854 -56.5023
RightShoulder  0 2.42657e-020 1.07489e-018
RightArm  -20.3432 17.274 86.3125
RightForeArm  38.8498 36.1989 7.40692
RightHand  -1.32263 25.6555 -5.43512
LeftUpLeg  -57.4001 -23.5598 7.39625
LeftLeg  46.8675 -16.5682 -14.99
LeftFoot  3.16098 0.0226622 -0.821338
LeftToes  -39.9603 1.18758e-006 1.19596e-007
87
root  53.9131 30.6889 50.5088 6.65125 10.1358 1.88998
RightUpLeg  -29.6003 -9.89992 19.3088
RightLeg  42.6338 -3.48388 -2.83901
RightFoot  -19.8772 0.139443 1.17339
RightToes  16.1013 0.0191052 0.155945
Spine  15.0056 2.47315 -5.41931
Spine1  26.2174 7.82549 -10.4435
HEad  38.0242 5.44807 15.3514
LeftShoulder1  0 -2.42657e-020 -4.95415e-022
LeftArm  -26.2426 -13.3767 -71.0268
LeftForeArm  -153.391 -37.5849 -7.30942
LeftHand  11.6899 -20.7079 -58.9097
RightShoulder  0 2.42657e-020 1.07489e-018
RightArm  -21.731 15.9927 84.551
RightForeArm  36.9212 37.0966 7.6582
RightHand  -1.15714 25.0782 -4.83049
LeftUpLeg  -54.7815 -21.9609 5.25337
LeftLeg  39.7698 -21.1179 -14.719
LeftFoot  3.84359 0.0463556 -1.38146
LeftToes  -40.9947 1.18758e-006 1.19596e-007
88
root  53.6981 30.714 51.5995 7.24133 6.64783 1.57846
RightUpLeg  -26.8787 -9.72436 19.8515
RightLeg  41.0093 -1.10957 -0.870302
RightFoot  -20.7692 -0.0427944 0.144033
RightToes  17.5444 0.0194071 0.170054
Spine  14.8678 2.58492 -5.30596
Spine1  26.1596 7.9918 -10.1118
HEad  37.0696 6.66464 14.2911
LeftShoulder1  0 -2.42657e-020 -4.95415e-022
LeftArm  -24.8634 -13.6129 -71.8022
LeftForeArm  -150.058 -40.9818 -8.30038
LeftHand  11.4484 -20.5835 -58.1863
RightShoulder  0 2.42657e-020 1.07489e-018
RightArm  -23.3167 15.1557 83.6601
RightForeArm  35.3151 37.8341 7.86907
RightHand  -1.25633 25.9098 -5.08865
LeftUpLeg  -52.789 -18.6466 2.71154
LeftLeg  35.5741 -23.8115 -14.1063
LeftFoot  1.89923 0.00928519 -0.560183
LeftToes  -40.9473 1.18758e-006 1.19596e-007
89
root  53.4633 30.6157 52.7069 7.55859 3.12085 1.5684
RightUpLeg  -24.8215 -9.35218 19.9102
RightLeg  41.411 1.07036 0.802742
RightFoot  -21.6277 -0.237987 -0.868367
RightToes  17.4806 0.019262 0.169431
Spine  15.2714 2.32297 -5.63369
Spine1  26.8686 7.4348 -10.121
HEad  34.3433 6.27185 14.0062
LeftShoulder1  0 -2.42657e-020 -4.95415e-022
LeftArm  -23.6347 -15.9282 -71.3907
LeftForeArm  -147.647 -43.5492 -9.12106
LeftHand  11.2139 -19.8388 -59.0047
RightShoulder  0 2.42657e-020 1.07489e-018
RightArm  -24.0983 15.6275 83.8545
RightForeArm  34.7277 38.1681 7.96579
RightHand  -1.33243 25.5647 -5.49953
LeftUpLeg  -51.2594 -15.8639 0.523923
LeftLeg  35.6869 -26.9011 -15.7938
LeftFoot  0.430027 -0.000721118 0.192152
LeftToes  -44.7172 1.18758e-006 1.19596e-007
90
root  53.3094 30.2756 53.7557 8.08557 0.409302 2.19367
RightUpLeg  -24.752 -9.87598 19.1805
RightLeg  45.1091 3.28213 2.85951
RightFoot  -23.3828 -0.513316 -2.10273
RightToes  15.2555 0.0184115 0.147671
Spine  15.948 1.29873 -6.33107
Spine1  28.1091 5.02237 -9.82994
HEad  32.3491 7.09603 13.5085
LeftShoulder1  0 -2.42657e-020 -4.95415e-022
LeftArm  -23.6953 -21.0451 -70.5542
LeftForeArm  -147.144 -44.152 -9.32407
LeftHand  11.3757 -20.4799 -58.1255
RightShoulder  0 2.42657e-020 1.07489e-018
RightArm  -24.0794 17.1221 84.7524
RightForeArm  34.3247 38.4298 8.04218
RightHand  -1.33708 23.7032 -5.99686
LeftUpLeg  -51.7136 -19.3665 1.88122
LeftLeg  39.164 -27.4545 -18.1971
LeftFoot  -0.796083 0.00647329 0.931744
LeftToes  -41.5085 1.18758e-006 1.19596e-007
91
root  53.1412 29.6756 54.6015 9.50256 -2.22031 2.57293
RightUpLeg  -27.1177 -10.2437 18.8047
RightLeg  51.4002 4.90232 5.31955
RightFoot  -25.0139 -0.850539 -3.45552
RightToes  9.16739 0.0157905 0.0881928
Spine  16.5966 -0.401005 -7.24042
Spine1  29.386 0.924336 -9.13963
HEad  29.8398 7.49977 13.4081
LeftShoulder1  0 -2.42657e-020 -4.95415e-022
LeftArm  -25.5288 -28.5062 -67.6268
LeftForeArm  -144.011 -42.3849 -8.74416
LeftHand  10.9999 -21.103 -55.0564
RightShoulder  0 2.42657e-020 1.07489e-018
RightArm  -23.5547 18.815 86.6592
RightForeArm  34.0484 39.0204 8.21609
RightHand  -1.44249 24.8694 -6.16668
LeftUpLeg  -55.6149 -22.7739 4.62274
LeftLeg  43.9873 -24.89 -19.6518
LeftFoot  2.80233 0.0325187 -1.32943
LeftToes  -38.9687 1.18758e-006 1.19596e-007
92
root  52.8733 29.0075 55.3522 11.3702 -4.48401 1.86255
RightUpLeg  -30.1282 -10.5462 19.5515
RightLeg  57.803 6.08323 8.26316
RightFoot  -24.2437 -1.10724 -4.77451
RightToes  -6.38774 -0.0192282 -0.0594304
Spine  18.1377 -2.36858 -7.86484
Spine1  32.095 -4.02024 -7.36531
HEad  23.8114 6.96943 12.101
LeftShoulder1  0 -2.42657e-020 -4.95415e-022
LeftArm  -29.3732 -37.988 -62.3412
LeftForeArm  -138.187 -37.7984 -7.38168
LeftHand  10.3902 -19.9315 -55.1039
RightShoulder  0 2.42657e-020 1.07489e-018
RightArm  -21.8081 22.1487 88.5264
RightForeArm  33.009 40.2948 8.6022
RightHand  -1.23734 24.6207 -5.29695
LeftUpLeg  -61.0325 -22.6452 6.79555
LeftLeg  50.9761 -20.5239 -20.8067
LeftFoot  7.28046 0.239618 -3.76508
LeftToes  -42.3873 1.18758e-006 1.19596e-007
93
root  52.6498 28.2663 56.1293 12.616 -7.44891 0.543861
RightUpLeg  -32.6374 -10.9305 20.0222
RightLeg  65.1476 7.31477 13.0704
RightFoot  -21.6144 -1.29929 -6.42144
RightToes  -27.2332 -0.12534 -0.232284
Spine  20.0136 -3.70536 -8.08892
Spine1  34.7735 -7.17986 -6.16813
HEad  20.0238 8.24981 13.0174
LeftShoulder1  0 -2.42657e-020 -4.95415e-022
LeftArm  -34.4197 -45.3794 -56.6242
LeftForeArm  -143.977 -34.4864 -6.48959
LeftHand  10.3101 -18.2341 -59.0747
RightShoulder  0 2.42657e-020 1.07489e-018
RightArm  -18.0537 26.0407 89.5735
RightForeArm  30.4227 40.7815 8.75499
RightHand  -1.08848 20.5696 -5.62498
LeftUpLeg  -65.9169 -23.0601 10.3661
LeftLeg  57.6656 -16.4277 -21.2656
LeftFoot  5.37922 0.121549 -2.58699
LeftToes  -48.2221 1.18758e-006 1.19596e-007
94
root  53.3784 27.7077 57.207 12.2094 -12.0254 6.73011
RightUpLeg  -36.9511 -14.776 10.1106
RightLeg  76.9795 7.68788 23.8114
RightFoot  -18.6564 -1.52933 -8.91324
RightToes  -49.5798 -0.299168 -0.362603
Spine  21.795 -6.06192 -10.5315
Spine1  38.3857 -9.49323 -10.8835
HEad  17.1775 8.92869 11.2786
LeftShoulder1  0 -2.42657e-020 -4.95415e-022
LeftArm  -45.3377 -51.2631 -48.2862
LeftForeArm  -140.113 -27.1778 -4.76412
LeftHand  10.4658 -18.9067 -58.0131
RightShoulder  0 2.42657e-020 1.07489e-018
RightArm  -13.0479 31.7295 93.5081
RightForeArm  30.3857 37.4634 7.76698
RightHand  -1.14301 25.9226 -4.59436
LeftUpLeg  -90.5568 -40.9791 41.8578
LeftLeg  55.5599 -25.1667 -28.4613
LeftFoot  15.4839 1.61911 -11.8677
LeftToes  -83.1937 1.18758e-006 1.19596e-007
